<svg xmlns="http://www.w3.org/2000/svg" width="113.386" height="113.386"><circle fill="#FFF" cx="56.693" cy="41.999" r="24.667"/><path fill="#2BB673" d="M56.696 14.174c-15.509 0-28.132 12.613-28.132 28.134 0 6.244 3.995 16.422 12.201 31.13 5.798 10.397 11.514 19.066 11.749 19.444l4.182 6.331 4.185-6.331c.234-.378 5.942-9.047 11.749-19.444 8.208-14.708 12.192-24.886 12.192-31.13 0-15.521-12.618-28.134-28.126-28.134zm.003 49.802c-12.069 0-21.868-9.801-21.868-21.865 0-12.078 9.799-21.861 21.868-21.861 12.075 0 21.857 9.783 21.857 21.861 0 12.064-9.782 21.865-21.857 21.865z"/><path fill="#2BB673" d="M42.446 47.163v-9.097h9.553v-9.65h9.452v9.603h9.356v9.145h-9.405v9.663h-9.453v-9.663h-9.503z"/></svg>