<svg xmlns="http://www.w3.org/2000/svg" width="393" height="38"><path fill="#ED1C24" fill-rule="evenodd" d="M382.854 16.1c-.086-.173-.258-.258-.432-.346-.258-.173-.518-.173-.777-.173-.434 0-.78.088-1.127.346-.345.259-.52.517-.52.865 0 .088 0 .175.087.258 0 .088 0 .261.088.35l2.508 4.414-2.508 4.5c-.088.087-.088.173-.088.258-.087.174-.087.26-.087.349 0 .344.175.606.52.865.348.26.693.344 1.127.344.259 0 .52-.084.69-.17a.897.897 0 0 0 .52-.433l3.205-4.847a.672.672 0 0 0 .173-.434c.082-.09.082-.26.082-.345 0-.174 0-.26-.082-.348a.663.663 0 0 0-.173-.432l-3.206-5.022zm9.696 5.02l-3.201-5.02c-.088-.173-.262-.258-.436-.346-.256-.173-.519-.173-.776-.173-.435 0-.78.088-1.129.346-.344.259-.516.517-.516.865 0 .088 0 .175.087.258 0 .088 0 .261.085.35l2.51 4.414-2.51 4.5c-.085.087-.085.173-.085.258-.087.174-.087.26-.087.349 0 .344.172.606.516.865.35.26.694.344 1.13.344.256 0 .519-.084.69-.17a.914.914 0 0 0 .52-.433l3.202-4.847c.087-.172.172-.262.172-.434.087-.09.087-.26.087-.345 0-.087 0-.26-.087-.348a.658.658 0 0 0-.172-.432zm-19.65 4.59h-.345V13.501h.345c.692 0 1.302-.172 1.646-.43.344-.346.518-.781.518-1.385 0-.694-.174-1.126-.604-1.384-.346-.35-.953-.432-1.905-.432h-5.108c-.865 0-1.557.083-1.904.432-.433.258-.607.778-.607 1.384 0 .604.174 1.039.52 1.385.434.258.95.43 1.645.43h.346v1.126l-6.491 5.802v-6.928h.261c.779 0 1.298-.172 1.64-.43.436-.346.61-.781.61-1.385 0-.606-.174-1.126-.61-1.384-.429-.35-1.036-.432-1.901-.432h-5.196c-.862 0-1.468.083-1.904.432-.343.258-.607.69-.607 1.384 0 .604.264 1.039.607 1.385.348.258.867.43 1.56.43h.344V25.71h-.345c-.692 0-1.21.171-1.643.518-.346.26-.523.693-.523 1.299 0 .693.177 1.124.607 1.384.348.346 1.042.433 1.904.433h5.196c.865 0 1.472-.087 1.902-.433.435-.26.608-.69.608-1.384 0-.606-.173-1.04-.608-1.299-.343-.347-.862-.518-1.64-.518h-.262v-1.042l6.49-5.713v6.755h-.345c-.694 0-1.21.171-1.645.518-.346.26-.52.693-.52 1.299 0 .693.174 1.124.52 1.384.434.346 1.041.433 1.99.433h5.11c.951 0 1.558-.087 1.99-.433.344-.26.607-.69.607-1.384 0-.606-.263-1.04-.607-1.299-.344-.347-.866-.518-1.646-.518zm-22.591 0c-1.125-1.991-2.079-3.638-3.028-4.763-.955-1.211-1.992-1.992-3.119-2.683l5.885-4.763h.436c.78 0 1.297-.085 1.643-.43.435-.346.607-.781.607-1.385 0-.694-.172-1.126-.607-1.384-.346-.35-1.036-.432-1.904-.432h-4.845c-.955 0-1.562.083-1.905.432-.434.258-.606.69-.606 1.384 0 .52.084.953.433 1.21.261.262.777.433 1.381.52l-6.142 5.109V13.5h.345c.694 0 1.298-.172 1.644-.43.348-.346.606-.781.606-1.385 0-.606-.258-1.126-.606-1.384-.433-.35-1.127-.432-1.989-.432h-5.11c-.864 0-1.555.083-1.901.432-.435.258-.606.69-.606 1.384 0 .604.171 1.039.52 1.385.432.258.948.43 1.642.43h.346v12.21h-.346c-.694 0-1.296.171-1.643.518-.348.26-.519.693-.519 1.299 0 .693.171 1.124.52 1.384.432.346 1.123.433 1.988.433h5.11c.951 0 1.555-.087 1.988-.433.348-.26.606-.69.606-1.384 0-.606-.258-1.04-.606-1.299-.346-.347-.95-.518-1.644-.518h-.345v-3.03l1.904-1.56c.952.694 1.733 1.388 2.424 2.165.778.863 1.556 2.077 2.596 3.722 0 .172.086.345.26.607.604 1.123 1.47 1.73 2.596 1.73h2.424c.954 0 1.557-.087 1.903-.433.436-.26.604-.69.604-1.384 0-.606-.168-1.04-.604-1.385-.346-.26-.95-.432-1.73-.432h-.606zm-29.777-7.011h-3.81v-5.021h3.81c1.125.085 1.994.258 2.598.604.777.432 1.21 1.039 1.21 1.817 0 .868-.433 1.558-1.21 1.995-.604.344-1.473.516-2.598.605zm0-8.83h-8.656c-.78 0-1.383.084-1.817.433-.433.258-.607.778-.607 1.384 0 .604.174 1.039.517 1.385.435.258.955.43 1.648.43h.259V25.71h-.259c-.693 0-1.213.171-1.648.518-.343.26-.517.693-.517 1.299 0 .693.174 1.124.607 1.384.345.346 1.038.433 1.817.433h6.925c.779 0 1.383-.087 1.73-.345.087 0 .087 0 .087-.088.433-.26.608-.69.608-1.384 0-.606-.175-1.04-.608-1.385l-.086-.086c-.348-.175-.952-.346-1.73-.346h-2.08v-3.376h3.81c3.117 0 5.451-.607 7.012-1.646 1.644-.952 2.512-2.594 2.512-4.673 0-2.08-.868-3.55-2.512-4.59-1.648-1.039-3.981-1.555-7.012-1.555zm-31.853 0c-.865 0-1.474.084-1.818.433-.434.258-.606.778-.606 1.384 0 .604.172 1.039.52 1.385.43.258.948.43 1.644.43h.26V25.71h-.348c-.69 0-1.21.171-1.556.518-.348.26-.52.693-.52 1.299 0 .693.172 1.124.606 1.384.344.346.953.433 1.818.433h16.357c.781 0 1.385-.087 1.647-.259.258-.26.433-.61.433-1.215v-3.98c0-.778-.175-1.298-.518-1.644-.348-.26-.868-.432-1.648-.432-.776 0-1.298.172-1.644.432-.348.346-.52.866-.52 1.643v1.992h-9.258V20.86h3.546v.348c0 .607.172 1.04.52 1.3.345.343.867.431 1.473.431.777 0 1.299-.175 1.558-.43.348-.352.516-.868.516-1.649v-3.286c0-.693-.168-1.3-.516-1.558-.26-.346-.869-.523-1.558-.523-.692 0-1.214.177-1.56.523-.346.257-.517.69-.517 1.384v.174h-3.462V13.33h9.258v1.733c0 .78.172 1.299.52 1.644.346.26.868.432 1.644.432.78 0 1.3-.171 1.648-.432.343-.345.518-.864.518-1.644V11.34c0-.605-.175-.954-.433-1.21-.262-.177-.866-.26-1.647-.26H288.68zm-6.667 7.356c.78-.691 1.213-1.556 1.213-2.598 0-1.73-.694-3.028-2.252-3.98-1.472-.867-3.549-1.388-6.318-1.388-2.51 0-4.676.348-6.406 1.043-1.643.69-2.51 1.556-2.51 2.507 0 .434.174.779.605 1.127.347.258.781.433 1.299.433.177 0 1.039-.26 2.511-.781a10.174 10.174 0 0 1 4.07-.863c1.126 0 1.988.26 2.597.604.69.434.95.953.95 1.646 0 .694-.26 1.21-.95 1.559-.609.346-1.904.604-3.81.777h-.085c-1.992.172-3.031.694-3.031 1.644 0 .348.084.693.346.952.258.26.606.433.952.522.346.088.607.088.952.173h2.595c1.388.173 2.426.431 3.118.864.693.52 1.039 1.126 1.039 1.991 0 .866-.432 1.559-1.385 2.078-.865.521-2.078.78-3.637.78-1.47 0-3.028-.259-4.586-.78-1.646-.606-2.51-.867-2.683-.867-.52 0-.951.174-1.297.523-.435.344-.607.69-.607 1.21 0 .951.862 1.82 2.51 2.424 1.644.692 3.896.952 6.663.952 3.115 0 5.626-.52 7.447-1.647 1.903-1.123 2.768-2.682 2.768-4.585 0-1.299-.433-2.338-1.384-3.205-.865-.692-2.337-1.298-4.155-1.556 1.557-.346 2.683-.779 3.46-1.559zm-29.603 8.831c-1.73 0-3.027-.521-4.067-1.733-.952-1.124-1.472-2.77-1.472-4.675 0-2.075.52-3.633 1.472-4.76.952-1.21 2.337-1.73 4.067-1.73s3.03.52 3.982 1.73c1.04 1.127 1.472 2.685 1.472 4.76 0 1.905-.432 3.551-1.472 4.675-.951 1.212-2.337 1.733-3.982 1.733zm4.156-16.103a13.097 13.097 0 0 0-4.156-.694c-1.559 0-2.94.262-4.238.694-1.3.433-2.514 1.04-3.466 1.905-1.212.951-2.076 2.165-2.682 3.463-.607 1.297-.865 2.773-.865 4.327 0 1.473.258 2.86.865 4.241.606 1.302 1.558 2.425 2.682 3.376 1.039.865 2.165 1.472 3.466 1.992 1.297.432 2.68.603 4.238.603 1.556 0 2.944-.171 4.156-.603 1.298-.432 2.425-1.037 3.373-1.905 1.213-1.038 2.166-2.161 2.772-3.463.607-1.297.866-2.768.866-4.24 0-1.555-.259-3.03-.866-4.328-.606-1.385-1.559-2.512-2.684-3.463-1.036-.866-2.163-1.472-3.461-1.905zm-21.726 5.628c-.262 0-.52 0-.78.173-.26.088-.434.173-.519.345l-3.117 4.848c-.087.086-.171.26-.259.435 0 .084-.09.258-.09.345 0 .087.09.259.09.345.088.174.172.262.259.436l3.117 5.019a.894.894 0 0 0 .52.433c.259.086.517.17.779.17.432 0 .777-.084 1.126-.344.345-.259.429-.52.429-.865v-.349c0-.085-.084-.171-.084-.258l-2.512-4.5 2.512-4.415c0-.088.084-.174.084-.261v-.346c0-.348-.084-.606-.429-.865-.349-.258-.694-.346-1.126-.346zm-4.936 1.21c0-.347-.17-.605-.52-.864-.258-.258-.69-.346-1.122-.346-.262 0-.52 0-.781.173-.172.088-.346.173-.432.345l-3.203 4.848a.664.664 0 0 0-.173.435c-.088.084-.088.258-.088.345 0 .087 0 .259.088.345 0 .174.086.262.173.436l3.203 5.019c.086.171.26.343.432.433.261.086.52.17.78.17.433 0 .865-.084 1.123-.344.35-.259.52-.52.52-.865 0-.088 0-.175-.084-.349 0-.085 0-.171-.087-.258l-2.513-4.5 2.513-4.415c.087-.088.087-.261.087-.349.084-.083.084-.17.084-.258zm-31.94 3.638l2.942-6.928 2.856 6.928h-5.798zm13.33 5.281l-6.318-14.198c-.26-.777-.605-1.298-.954-1.382-.26-.177-.777-.26-1.558-.26h-7.443c-.865 0-1.558.083-1.904.432-.432.258-.606.778-.606 1.384 0 .604.174 1.123.606 1.385.346.258 1.04.43 1.904.43h1.645l-5.366 12.209h-.348c-.547 0-1.035.114-1.39.33-.36-.201-.886-.33-1.553-.33h-.606c-1.125-1.991-2.077-3.638-3.028-4.763-.952-1.211-1.992-1.992-3.117-2.683l5.886-4.763h.434c.78 0 1.298-.085 1.642-.43.434-.346.607-.781.607-1.385 0-.694-.173-1.126-.607-1.384-.344-.35-1.037-.432-1.904-.432h-4.846c-.953 0-1.559.083-1.905.432-.432.258-.605.69-.605 1.384 0 .52.173.953.433 1.21.259.262.78.433 1.384.52l-6.145 5.109V13.5h.346c.692 0 1.298-.172 1.645-.43.346-.346.605-.781.605-1.385 0-.606-.26-1.126-.605-1.384-.432-.35-1.126-.432-1.99-.432h-5.108c-.865 0-1.558.083-1.905.432-.432.258-.606.69-.606 1.384 0 .604.174 1.039.52 1.385.433.258.951.43 1.645.43h.346v12.21h-.346c-.694 0-1.299.171-1.645.518-.346.26-.52.693-.52 1.299 0 .693.174 1.124.52 1.384.433.346 1.126.433 1.99.433h5.108c.953 0 1.559-.087 1.99-.433.347-.26.606-.69.606-1.384 0-.606-.26-1.04-.605-1.299-.347-.347-.953-.518-1.645-.518h-.346v-3.03l1.904-1.56c.953.694 1.731 1.388 2.424 2.165.78.863 1.557 2.077 2.596 3.722 0 .172.086.345.26.607.607 1.123 1.471 1.73 2.596 1.73h2.425c.798 0 1.34-.071 1.703-.296.413.225.962.296 1.76.296h5.106c.952 0 1.558-.087 1.992-.433.345-.26.52-.69.52-1.384 0-.606-.175-1.04-.52-1.385-.434-.26-1.04-.432-1.992-.432h-.693l.866-1.905h8.658l.777 1.905h-.693c-.866 0-1.56.171-1.905.432-.432.345-.604.779-.604 1.385 0 .693.172 1.124.517 1.384.433.346 1.042.433 1.992.433h5.973c.952 0 1.56-.087 1.99-.433.348-.26.522-.69.522-1.384 0-.606-.174-1.04-.523-1.299-.346-.347-.948-.518-1.643-.518h-.346zM148.278 9.87c-.865 0-1.472.083-1.905.432-.346.258-.606.778-.606 1.384 0 .604.173 1.039.606 1.385.346.258.866.43 1.558.43h.347V25.71h-.347c-.692 0-1.212.171-1.558.518-.433.26-.606.693-.606 1.299 0 .693.26 1.124.606 1.384.346.346 1.04.433 1.905.433h16.187c.865 0 1.384-.087 1.644-.259.26-.26.433-.61.433-1.215v-3.98c0-.778-.173-1.298-.519-1.644-.26-.26-.866-.432-1.558-.432-.78 0-1.385.172-1.731.432-.348.346-.434.866-.434 1.643v1.992h-9.261V20.86h3.463v.348c0 .607.173 1.04.518 1.3.346.343.866.431 1.558.431.693 0 1.212-.175 1.559-.43.26-.352.432-.868.432-1.649v-3.286c0-.693-.173-1.3-.432-1.558-.347-.346-.866-.523-1.645-.523-.693 0-1.126.177-1.472.523-.345.257-.518.69-.518 1.384v.174h-3.463V13.33h9.26v1.733c0 .78.175 1.299.521 1.644.26.26.866.432 1.645.432.692 0 1.298-.171 1.558-.432.346-.345.519-.864.519-1.644V11.34c0-.605-.173-.954-.433-1.21-.26-.177-.78-.26-1.644-.26h-16.187zm-5.453-.09h-17.14c-.865 0-1.472.173-1.73.35-.26.172-.434.776-.52 1.728l-.173 4.934v.175c0 .69.173 1.21.52 1.471.345.346.865.517 1.643.517.606 0 1.126-.171 1.472-.517.346-.261.52-.693.52-1.213v-.433l.172-3.29h4.155V25.71h-3.375c-.865 0-1.559.171-1.905.432-.433.259-.606.779-.606 1.385 0 .603.173 1.124.606 1.384.433.346 1.04.433 1.905.433h11.859c.865 0 1.471-.087 1.904-.433.346-.26.52-.78.52-1.384 0-.606-.174-1.126-.52-1.385-.433-.26-1.039-.432-1.904-.432h-3.377V13.501h4.156l.172 3.379c0 .693.174 1.297.434 1.558.346.346.865.517 1.558.517.778 0 1.297-.171 1.644-.517.347-.261.52-.78.52-1.471v-.175l-.26-4.934c0-.952-.174-1.556-.433-1.728-.26-.177-.865-.35-1.817-.35zM86.3 20.43l2.857-6.929 2.855 6.928H86.3zm33.931 5.28V13.501h.173c.866 0 1.473-.172 1.905-.517.433-.26.606-.694.606-1.298 0-.694-.173-1.126-.606-1.472-.52-.261-1.299-.344-2.423-.344h-15.841c-1.212 0-1.992.083-2.424.344-.519.346-.693.778-.693 1.472 0 .604.174 1.039.606 1.298.434.345 1.039.517 1.905.517h.26V25.71h-1.126c-.48 0-.872.163-1.136.462-.344-.299-.82-.462-1.461-.462h-.346l-6.32-14.198c-.345-.777-.692-1.298-.951-1.382-.347-.177-.866-.26-1.558-.26h-7.445c-.952 0-1.558.083-1.99.432-.346.258-.606.778-.606 1.384 0 .604.26 1.123.606 1.385.432.258 1.038.43 1.904.43h1.645L79.548 25.71h-.346c-.692 0-1.21.171-1.558.518-.433.26-.605.693-.605 1.299 0 .693.172 1.124.605 1.384.347.346 1.04.433 1.904.433h5.195c.865 0 1.558-.087 1.904-.433.433-.26.606-.69.606-1.384 0-.606-.173-1.04-.606-1.385-.434-.26-1.039-.432-1.904-.432h-.694l.867-1.905h8.57l.778 1.905h-.692c-.865 0-1.472.171-1.904.432-.434.345-.607.779-.607 1.385 0 .693.173 1.124.607 1.384.345.346 1.039.433 1.904.433h6.059c.843 0 1.514-.087 1.87-.408a3.08 3.08 0 0 0 1.591.408h5.974c.606 0 1.125-.174 1.558-.52.433-.26.606-.694.606-1.297 0-.433-.173-.867-.52-1.299-.346-.347-.779-.518-1.298-.518h-.519V13.501h6.144V25.71h-.518c-.519 0-.865.171-1.212.518-.433.344-.606.779-.606 1.299 0 .603.26 1.037.606 1.384.433.259.953.433 1.645.433h5.8c.691 0 1.211-.174 1.644-.433.347-.347.605-.78.605-1.384 0-.52-.173-.955-.518-1.299-.26-.347-.693-.518-1.212-.518h-1.039zm-77.73 10.557v-.303c10.926-2.015 19.08-8.654 19.122-16.75-.024-4.963-3.04-9.372-7.857-12.518a.434.434 0 0 0-.3-.193c-3.056-1.935-6.814-3.36-10.965-4.127v-.731c4.933.518 9.521 1.557 13.503 3.115 8.137 3.203 13.418 8.398 13.418 14.195 0 5.803-5.281 10.905-13.418 14.196-3.982 1.473-8.57 2.6-13.503 3.116zm0-2.922c2.86-.72 5.436-1.876 7.553-3.378l2.772 1.275c-2.883 1.785-6.414 3.127-10.325 3.864v-1.76zm0-7.55h10.617c-.854 1.163-1.925 2.233-3.183 3.18l-3.793-1.75a.426.426 0 0 0-.567.212.43.43 0 0 0 .208.565l3.351 1.543c-1.887 1.266-4.137 2.259-6.633 2.916v-6.666zm0-20.005c2.425.639 4.62 1.6 6.472 2.826l-3.198 1.561a.427.427 0 0 0 .375.766l3.62-1.768a15.71 15.71 0 0 1 3.104 3.03H42.5V5.79zm11.463 6.415c-.888-1.27-2.01-2.43-3.326-3.454l2.695-1.317.108.071c4.565 3.035 7.332 7.176 7.33 11.709.002 4.411-2.672 8.468-7.098 11.48l-2.843-1.308a15.755 15.755 0 0 0 3.341-3.591h2.093v-13.59h-2.3zM42.5 3.23c3.76.712 7.165 1.984 9.981 3.671l-2.62 1.28c-2.08-1.448-4.587-2.559-7.361-3.263V3.23zm-13.676-.876C17.83 4.33 9.652 11.008 9.615 19.214c.04 8.136 8.217 14.8 19.21 16.779-4.674-.504-9.09-1.63-12.812-3.187C8.224 29.603 3.29 24.584 3.29 18.955c0-5.626 4.934-10.645 12.723-13.934 3.723-1.472 8.138-2.685 12.812-3.204v.537zm0 2.583c-2.758.695-5.267 1.78-7.363 3.194l-2.81-1.197c2.857-1.727 6.33-3.02 10.173-3.73v1.733zm0 7.268H18.282a16.18 16.18 0 0 1 3.3-3.097l4.738 2.018a.426.426 0 0 0 .334-.785l-4.23-1.8c1.854-1.174 4.02-2.1 6.4-2.726v6.39zm0 20.244c-2.221-.582-4.254-1.427-6.02-2.485l3.944-1.791a.425.425 0 0 0-.351-.775l-4.455 2.02c-1.564-1.05-2.874-2.279-3.897-3.623h10.779v6.654zm-11.848-6.654c1.037 1.506 2.394 2.876 4.038 4.041l-2.835 1.288c-.144-.09-.286-.181-.427-.276-4.543-3.023-7.29-7.143-7.287-11.634 0-4.534 2.747-8.674 7.287-11.709.009-.004 2.894 1.204 2.894 1.204-1.373 1.034-2.542 2.21-3.469 3.496h-2.462v13.59h2.261zm11.848 9.348c-3.662-.674-6.986-1.88-9.762-3.483l2.784-1.263c2.016 1.28 4.387 2.275 6.978 2.93v1.816zM36.355 0c-7.53 0-14.542 1.125-20.342 3.202C6.32 6.665 0 12.464 0 19.042c0 6.493 6.319 12.294 16.013 15.756C21.813 36.788 28.825 38 36.355 38c7.184 0 13.937-1.127 19.65-3.03 10.04-3.373 16.705-9.26 16.705-15.928 0-6.752-6.665-12.638-16.706-16.099C50.292 1.04 43.54 0 36.355 0z"/></svg>